<svg xmlns="http://www.w3.org/2000/svg" width="10.781" height="109.53" viewBox="0 0 10.781 109.53"><path id="menu_sub_heading_md.svg" d="M586.72 3176.07a5.382 5.382 0 00-5.385 5.42 5.145 5.145 0 001.455 3.64.282.282 0 00.405.02l.96-.93a.283.283 0 000-.38 3.586 3.586 0 01-.855-2.29 3.483 3.483 0 016.96-.02 3.549 3.549 0 01-.885 2.31.246.246 0 000 .38l.945.91a.282.282 0 00.42-.01 5.085 5.085 0 001.395-3.63 5.407 5.407 0 00-5.415-5.42zm-5.235 11.42v1.3a.459.459 0 00.3.44l1.62.73v4.49l-1.62.73a.437.437 0 00-.3.44v1.3a.264.264 0 00.39.25l10.1-4.61a.267.267 0 00.165-.26v-.15a.262.262 0 00-.165-.25l-10.1-4.67a.266.266 0 00-.39.26zm3.585 3.21l3.3 1.47v.04l-3.3 1.5v-3.01zm-3.3 9.34a.286.286 0 00-.285.29v1.38a.291.291 0 00.285.28h3.8v3.71a.3.3 0 00.285.28h1.23a.3.3 0 00.285-.28v-3.71h2.82v4.44a.284.284 0 00.285.28h1.23a.284.284 0 00.285-.28v-6.1a.286.286 0 00-.285-.29h-9.93zm3.69 9.81a4.175 4.175 0 000 8.35h6.24a.291.291 0 00.285-.28v-1.43a.284.284 0 00-.285-.28h-6.15a2.182 2.182 0 11.015-4.36h6.135a.286.286 0 00.285-.29v-1.42a.3.3 0 00-.285-.29h-6.24zm0 12.29a4.175 4.175 0 000 8.35h6.24a.3.3 0 00.285-.29v-1.42a.286.286 0 00-.285-.29h-6.15a2.182 2.182 0 11.015-4.36h6.135a.284.284 0 00.285-.28v-1.43a.291.291 0 00-.285-.28h-6.24zm-3.63 16.55a.276.276 0 00-.345.29v1.35a.3.3 0 00.225.27l5.685.87v.04l-5.895 2.66a.262.262 0 00-.165.25v.27a.257.257 0 00.165.26l5.895 2.62v.05l-5.685.88a.326.326 0 00-.225.29v1.36a.257.257 0 00.345.27l10.08-1.77a.247.247 0 00.225-.27v-.24a.251.251 0 00-.15-.25l-7.08-3.3v-.05l7.08-3.3a.261.261 0 00.15-.25v-.24a.247.247 0 00-.225-.27zm-.06 15.29a.284.284 0 00-.285.28v6.11a.284.284 0 00.285.28H583a.284.284 0 00.285-.28v-4.44h2.625v3.7a.289.289 0 00.285.29h1.245a.3.3 0 00.285-.29v-3.7h2.46v4.44a.284.284 0 00.285.28h1.23a.284.284 0 00.285-.28v-6.11a.284.284 0 00-.285-.28h-9.93zm0 10.32a.291.291 0 00-.285.28v1.37a.284.284 0 00.285.28h6.45v.02l-6.885 6.27v.36a.278.278 0 00.27.28h10.1a.291.291 0 00.285-.28v-1.38a.286.286 0 00-.285-.29h-6.2v-.01l6.63-6.24v-.38a.278.278 0 00-.27-.28h-10.1zm3.69 12.94a4.18 4.18 0 000 8.36h6.24a.3.3 0 00.285-.29v-1.42a.286.286 0 00-.285-.29h-6.15a2.182 2.182 0 11.015-4.36h6.135a.286.286 0 00.285-.29v-1.42a.3.3 0 00-.285-.29h-6.24z" transform="translate(-581.344 -3176.06)" fill="#f0af49" fill-rule="evenodd"/></svg>