<svg xmlns="http://www.w3.org/2000/svg" width="45.593" height="368.13"><path d="M14.3 29.81c-.25 0-.35.05-.35.25a.544.544 0 00.05.25 23.8 23.8 0 011.05 3.2c.1.65.4 1.45 3.85 1.45 3.25 0 5.951-1.5 8.1-5.05 1.75-2.95 2.3-8.75 2.3-12.6 0-3.5-.25-7.6-5.35-7.6h-.2c-1.351 0-2.8.1-4.351.25.5-1.95 1-3.9 1.35-5.75.25-1.2 1.3-1.8 1.3-2.3 0-1.1-5.95-1.9-6.05-1.9-.2 0-.25.1-.25.7a44.941 44.941 0 01-1.2 9.85c-3.65.5-6.95 1-8.6 1h-.4a.412.412 0 00-.5.5 11.919 11.919 0 001.2 3.7.9.9 0 00.951.45c1.3-.1 3.5-.6 6.1-1.15-2.2 6.75-5.7 13-9.9 17.15a.432.432 0 00-.15.3c0 .9 4.4 2.25 4.9 2.25a.529.529 0 00.45-.25c4.1-5.5 7.35-12.9 9.6-20.3 1.3-.15 3.2-.3 3.9-.3 1.5 0 2.451.05 2.451 4.35 0 11.25-4.551 11.75-7.1 11.75a22.413 22.413 0 01-2.95-.2h-.2zm17.3-19.4a1.254 1.254 0 00-.25.4.4.4 0 00.25.35c1.55 1.05 6.9 5.45 9.4 10.5a.567.567 0 00.45.35c.75 0 4.15-2.75 4.15-3.4 0-1.75-9.8-10.5-11.2-10.5a.779.779 0 00-.5.3zM14.249 84.56c-.25 0-.4.05-.4.25a.985.985 0 00.2.4 12.037 12.037 0 011.9 2.95c.35.85.9.9 3.05.9 6.151 0 10.7-4 10.7-9.05a11.014 11.014 0 00-3.3-7.4c-1.25-1.35-2.9-2.95-4-4.1a2.96 2.96 0 01-.85-2.05 3.45 3.45 0 011.1-2.4.542.542 0 00.151-.35.422.422 0 00-.351-.35 34.469 34.469 0 00-4.15-1c-.55 0-1.95 1.9-1.95 4.1a6.8 6.8 0 002.2 4.7c1.25 1.3 2.8 2.65 3.9 4.05a7.957 7.957 0 012 4.75c0 2.8-2.651 4.75-7.651 4.75a20.6 20.6 0 01-2.4-.15h-.15zm17.2-13.3c4.95 3.25 7.7 6.7 9.1 9.45a.353.353 0 00.35.25c.85 0 4.55-2.7 4.55-3.15 0-.7-3.75-5.6-10.151-9.45a.422.422 0 00-.35-.1c-.7 0-3.75 2.35-3.75 2.6a.6.6 0 00.253.4zm-16.451 6.2a.451.451 0 00-.05-.25 20.278 20.278 0 01-1.1-3.65c-.05-.3-.1-.4-.2-.4a.773.773 0 00-.3.15 49.9 49.9 0 01-12.8 6.5.693.693 0 00-.55.35s3.6 4.6 4.3 4.6c.6 0 1.1-.9 1.7-1.3 8.352-5 9.002-5.55 9.002-6zm11.551-17.1c.4-.3 2.65-3.15 2.65-3.9 0-1.1-10.6-4.2-12.3-4.2-.55 0-2.6 3.05-2.6 3.4a.387.387 0 00.4.35 36.754 36.754 0 0111.1 4.45.711.711 0 00.3.1.9.9 0 00.452-.2zm6.2 51.1c.4 0 2-3.05 2-3.95 0-1.25-9.5-2.65-9.85-2.65-.8 0-1.9 2.95-1.9 3.55 0 .3.25.3.6.35a26.828 26.828 0 018.75 2.55 1 1 0 00.402.15zm-7.848 24.45c.5 0 12.05-2.9 12.05-13.45 0-3.85-1.2-9.45-7.6-9.45-1.9 0-3.2.25-7.7 1.9a11.872 11.872 0 01-2.75.65c-.4.05-.6.15-.6.4 0 .7 2.5 3.85 3.3 3.85a.6.6 0 00.4-.1c.8-.4 1.6-.95 2.451-1.35a11.253 11.253 0 014.6-1.4c1.1 0 3.5.4 3.5 5.3 0 5.4-4.75 8.8-10.5 10.2-.35.1-.55.15-.55.35a.927.927 0 00.4.55 15.632 15.632 0 012.3 2.15.8.8 0 00.699.4zm-1.35 48.5c12.65-1.3 17.751-8.7 17.751-15.75 0-9.2-8.1-15.05-17.851-15.05-11.051 0-19.552 7.75-19.552 17.4 0 7.4 5.2 10.9 7.7 10.9a3.447 3.447 0 002.9-1.75c5.35-7.9 10.6-20.5 11.151-21.7a.829.829 0 01.8-.65h.15c6.2 1.35 9.6 5.95 9.6 10.55 0 5.8-5.4 11.65-16.9 11.9-.3 0-.55.05-.55.25a.961.961 0 00.35.5 11.819 11.819 0 012.4 2.55 1.814 1.814 0 001.7.85h.35zm-3.1-26.65c-.85 2.45-4.9 12.25-8.8 17.8a.851.851 0 01-.65.4c-1.25 0-2.5-2.9-2.5-5.2-.001-5.75 5.149-11.75 11.949-13zm4.551 63.4a50.064 50.064 0 016.3 5.6.432.432 0 00.3.15c.55 0 3.7-3.3 3.7-3.9 0-.55-2.95-3-7.4-6.05a78.345 78.345 0 004.2-7.5 6.066 6.066 0 011.85-2.6c.5-.4 1.4-.85 1.4-1.4 0-1.3-6-3.35-6.45-3.35-.2 0-.2.15-.25.45-.15 1.2-.65 4.5-4.9 11.7-4.5-2.7-7.6-4.15-8.051-4.15-.6 0-3 2.45-3 2.85a.469.469 0 00.25.45 73.725 73.725 0 018.15 4.9c-4.1 5.75-9.65 11.1-16.751 14.15a.842.842 0 00-.5.3.752.752 0 00.6.35 16.012 16.012 0 014.551 2.4.752.752 0 00.55.2c1.099 0 8.399-4.95 15.45-14.55zm14.351 56.2a.5.5 0 00.6-.45c.05-.45.05-1.4.05-2.35s0-1.95-.05-2.4a.566.566 0 00-.6-.55h-.1c-8.351.55-11.851.55-16.552.55-4.65 0-7.75 0-16.3-.55h-.25c-.55 0-.65.1-.65 2.5 0 1.05 0 2.2.05 2.7 0 .3.15.55.7.55h.15c7.351-.5 10.3-.5 16.3-.5 4.651 0 8.4 0 16.552.5h.1zm-29.3-23.25c-.5 0-.5.4-.5 2.65 0 .85.05 1.75.05 2.3a.53.53 0 00.65.45c5.4-.45 8.05-.5 12.45-.5 3.7 0 6.1 0 12.651.5a.5.5 0 00.55-.35c.05-.5.1-1.45.1-2.35 0-2.6-.2-2.7-.65-2.7-6.05.5-10.85.5-14.1.5-2.6 0-5.2-.05-11-.5h-.2zm31.652 58.75c.4 0 .5-.1.5-2.15 0-2.3-.15-2.4-.6-2.4h-.1c-2.25.15-4.6.25-7 .35 1.2-9.45 1.55-11.8 1.65-12.5v-.15a1.023 1.023 0 00-1.05-.9h-.1c-3.8.25-4.45.3-8.25.3-1.65 0-3.45-.05-7.2-.3h-.3c-.45 0-.45 0-.45 3.8a.5.5 0 00.55.6h.2c3.951-.3 5.651-.3 8.651-.3.95 0 1.85 0 2.8.05.15 0 .15.05.15.2-.1 1.5-.3 3.1-.45 4.45-.2 1.75-.5 3.35-.7 4.85-.65 0-1.25.05-1.9.05h-1.6a114.174 114.174 0 01-11.751-.55h-.2c-.45 0-.55 0-.55 2.7 0 1.7 0 2.05.5 2.05h.15c4.2-.3 8.8-.5 13.4-.5 4.65 0 9.25.1 13.5.35h.15zm-16.1 54.2c-.45-4.6-.5-10.6-.5-13.2v-10.35c0-.95 0-4.8.1-6.6.05-1.5 1.6-2.55 1.6-3.35 0-1.4-5.751-1.65-6.251-1.65-.55 0-.7 0-.7.3a1.722 1.722 0 00.05.45 91.621 91.621 0 01.55 10.85v10.35c0 1.9-.15 8.75-.5 13.1 0 .15-.05.3-.05.4 0 .55.05.75 2.951.75 2.5 0 2.75-.15 2.75-.75v-.3z" fill="#573001" fill-rule="evenodd"/></svg>