<svg xmlns="http://www.w3.org/2000/svg" width="47" height="37.97"><path d="M14.726 37.98c17.792 0 27.452-14.65 27.452-27.31V9.38a21.324 21.324 0 004.831-4.93 18.737 18.737 0 01-5.538 1.53A9.48 9.48 0 0045.713.7a21.9 21.9 0 01-6.127 2.35 9.678 9.678 0 00-16.73 6.56 14.435 14.435 0 00.236 2.23A27.087 27.087 0 013.181 1.75a9.482 9.482 0 00-1.3 4.81 9.272 9.272 0 004.359 7.97 9.23 9.23 0 01-4.359-1.17v.12a9.472 9.472 0 007.776 9.38 9.4 9.4 0 01-2.592.35c-.59 0-1.178-.12-1.767-.12a9.66 9.66 0 009.071 6.69 19.315 19.315 0 01-12.017 4.1 15.514 15.514 0 01-2.357-.12 27.778 27.778 0 0014.727 4.22" fill="#fff" fill-rule="evenodd"/></svg>
