<svg xmlns="http://www.w3.org/2000/svg" width="59.328" height="7.205" viewBox="0 0 118.656 14.41"><path data-name="50% sns_facebook_label_sm.svg" d="M-.014 13.84a.38.38 0 00.38.38h1.84a.393.393 0 00.38-.38V8.78h4.941a.393.393 0 00.38-.38V6.76a.393.393 0 00-.38-.38H2.586V2.61h5.92a.38.38 0 00.38-.38V.59a.38.38 0 00-.38-.38H.366a.38.38 0 00-.38.38v13.25zm11.3.38h1.741a.6.6 0 00.58-.4l.98-2.16h5.981l.98 2.16a.575.575 0 00.581.4h1.74a.353.353 0 00.34-.52L18.048.23a.34.34 0 00-.34-.22h-.2a.359.359 0 00-.34.22L10.946 13.7a.353.353 0 00.339.52zm4.281-4.78l1.961-4.4h.06l2 4.4h-4.022zm11.339-2.2a7.171 7.171 0 007.222 7.18 6.867 6.867 0 004.861-1.94.381.381 0 00.02-.54l-1.24-1.28a.368.368 0 00-.5 0 4.8 4.8 0 01-3.061 1.14 4.648 4.648 0 01-.02-9.29 4.736 4.736 0 013.081 1.18.32.32 0 00.5 0l1.22-1.26a.372.372 0 00-.02-.56A6.771 6.771 0 0034.128.01a7.207 7.207 0 00-7.222 7.23zm16.7 6.6a.38.38 0 00.381.38h8.141a.38.38 0 00.38-.38V12.2a.38.38 0 00-.38-.38h-5.922v-3.5h4.941a.38.38 0 00.38-.38V6.28a.393.393 0 00-.38-.38h-4.941V2.61h5.921a.38.38 0 00.38-.38V.59a.38.38 0 00-.38-.38h-8.141a.38.38 0 00-.381.38v13.25zm13.76 0a.38.38 0 00.38.38h4.842c2.44 0 4.36-1.62 4.36-3.86a3.594 3.594 0 00-2.6-3.26 3.812 3.812 0 002.2-3.19c0-2.1-1.84-3.7-4.221-3.7h-4.581a.38.38 0 00-.38.38v13.25zm2.581-7.74V2.59h2.14a1.635 1.635 0 011.721 1.71 1.715 1.715 0 01-1.721 1.8h-2.14zm0 5.76V8.3h2.18a1.937 1.937 0 012.041 1.74 1.785 1.785 0 01-1.8 1.82h-2.42zm10.759-4.62A7.192 7.192 0 1077.888.01a7.137 7.137 0 00-7.182 7.23zm2.6 0a4.591 4.591 0 114.581 4.58 4.635 4.635 0 01-4.581-4.58zm15.4 0A7.192 7.192 0 1095.887.01a7.136 7.136 0 00-7.181 7.23zm2.6 0a4.591 4.591 0 114.581 4.58 4.636 4.636 0 01-4.581-4.58zm16.4 6.5a.474.474 0 00.48.48h1.76a.487.487 0 00.48-.48v-6.1l5.221 6.44a.434.434 0 00.36.14h2.181a.439.439 0 00.36-.7l-5.6-6.7 5.221-5.89a.425.425 0 00-.32-.72h-2a.478.478 0 00-.38.2l-5.041 5.69V.69a.487.487 0 00-.48-.48h-1.76a.474.474 0 00-.48.48v13.05z" fill="#573001" fill-rule="evenodd"/></svg>