<svg xmlns="http://www.w3.org/2000/svg" width="63.25" height="7.205" viewBox="0 0 126.5 14.41"><path data-name="50% sns_instagram_label_sm.svg" d="M-.015 13.84a.393.393 0 00.38.38h1.86a.393.393 0 00.38-.38V.59a.393.393 0 00-.38-.38H.365a.393.393 0 00-.38.38v13.25zm8.26 0a.393.393 0 00.38.38h1.82a.38.38 0 00.38-.38v-8.6h.02l8.362 9.18h.48a.376.376 0 00.38-.36V.59a.393.393 0 00-.38-.38h-1.84a.38.38 0 00-.38.38v8.27h-.02L9.125.01h-.5a.376.376 0 00-.38.36v13.47zm16.739-.98a6.437 6.437 0 004.4 1.56c2.821 0 4.6-1.9 4.6-3.96 0-2.58-2.24-3.74-4.181-4.52-1.62-.66-2.36-1.3-2.36-2.25a1.593 1.593 0 011.76-1.4 6.585 6.585 0 012.781 1.1.526.526 0 00.7-.24l.76-1.14a.5.5 0 00-.12-.66 7.042 7.042 0 00-4-1.34c-3.18 0-4.5 2.06-4.5 3.84 0 2.37 1.881 3.57 3.761 4.33 1.68.68 2.541 1.38 2.541 2.4a1.671 1.671 0 01-1.821 1.54 6.623 6.623 0 01-3.02-1.24.464.464 0 00-.681.14l-.72 1.24a.4.4 0 00.1.6zm15.441.98a.393.393 0 00.38.38h1.86a.393.393 0 00.38-.38V2.61h3.061a.38.38 0 00.38-.38V.59a.38.38 0 00-.38-.38h-8.742a.38.38 0 00-.38.38v1.64a.38.38 0 00.38.38h3.061v11.23zm7.9.38h1.74a.6.6 0 00.58-.4l.981-2.16h5.981l.98 2.16a.575.575 0 00.58.4h1.741a.353.353 0 00.34-.52L55.086.23a.34.34 0 00-.34-.22h-.2a.359.359 0 00-.34.22L47.985 13.7a.353.353 0 00.34.52zm4.281-4.78l1.96-4.4h.059l2 4.4h-4.02zm11.359-2.2a7.133 7.133 0 007.182 7.16 10.112 10.112 0 004.961-1.3.385.385 0 00.16-.32V7.66a.376.376 0 00-.36-.38h-3.841a.368.368 0 00-.38.38v1.58a.363.363 0 00.38.36h1.6v1.7a6.257 6.257 0 01-2.38.5 4.615 4.615 0 113-8.07.342.342 0 00.52 0l1.241-1.3a.387.387 0 00-.02-.56A7.565 7.565 0 0071.147.01a7.186 7.186 0 00-7.183 7.23zm17.24 6.6a.38.38 0 00.38.38h1.84a.393.393 0 00.38-.38v-5.1h2.22l2.661 5.3a.343.343 0 00.32.18h2.1a.378.378 0 00.34-.58l-2.74-5.08a4.414 4.414 0 002.96-4.04A4.334 4.334 0 0087.305.21h-5.721a.38.38 0 00-.38.38v13.25zm2.621-7.24V2.61h3.26a1.992 1.992 0 011.981 1.95 2.037 2.037 0 01-1.981 2.04h-3.261zm11.219 7.62h1.74a.6.6 0 00.58-.4l.98-2.16h5.98l.98 2.16a.575.575 0 00.58.4h1.74a.353.353 0 00.34-.52L101.804.23a.34.34 0 00-.34-.22h-.2a.359.359 0 00-.34.22L94.702 13.7a.353.353 0 00.342.52zm4.28-4.78l1.961-4.4h.06l2 4.4h-4.021zm11.54 4.32a.366.366 0 00.38.46h1.8a.387.387 0 00.36-.3l1.16-7.58h.06l3.541 7.86a.359.359 0 00.34.22h.36a.34.34 0 00.34-.22l3.5-7.86h.06l1.18 7.58a.434.434 0 00.38.3h1.821a.347.347 0 00.36-.46L124.146.31a.337.337 0 00-.36-.3h-.32a.345.345 0 00-.34.2l-4.4 9.45h-.06l-4.4-9.45a.365.365 0 00-.34-.2h-.32a.337.337 0 00-.36.3z" fill="#573001" fill-rule="evenodd"/></svg>