<svg xmlns="http://www.w3.org/2000/svg" width="86.43" height="242.531"><path d="M80.28 28.006c.52 0 .96-.12.96-.44 0-.68-2.84-3.44-3.04-3.44a.193.193 0 00-.16.08 19.913 19.913 0 01-6.72 3.68 14.209 14.209 0 01-2.32-3.32c1.24 0 2.8.04 3.68.04v.6c0 .28.16.4 1.4.4 2.32 0 2.4-.24 2.4-.44v-.24a41.164 41.164 0 01-.32-5.48c0-2.64 0-4.681.2-6.881a26.812 26.812 0 005.28 2.8.625.625 0 00.48-.24c.84-1.04 2.32-1.64 3.4-2.32a.859.859 0 00.44-.44.573.573 0 00-.44-.24c-6.72-1.96-12.88-5.96-15.92-9.16a1.018 1.018 0 00.8-.68c0-.88-4.24-2.28-4.36-2.28-.2 0-.24.16-.32.36-.76 2.8-7.84 10.52-16.32 13.6a.692.692 0 00-.52.36.706.706 0 00.52.36 9.779 9.779 0 013.28 1.841.454.454 0 00.32.12c.68 0 4.08-2.4 5.16-3.2a47.332 47.332 0 01.24 5.121c0 1.24-.04 2.52-.04 4.12 0 2.68 0 5.76-.16 9.04a61.95 61.95 0 01-7.56 1.12c-.44 0-.44 0-.44.16 0 .24 1.8 3.921 2.56 3.921.32 0 .64-.48 1.24-.64l14.72-3.761a.514.514 0 00.52-.56 7.626 7.626 0 01.12-1.28c4.8 4.92 12.4 6 12.96 6a.544.544 0 00.52-.28 13.563 13.563 0 013.2-2.681.941.941 0 00.4-.48c0-.08-.12-.16-.44-.16-5.32-.04-9.28-1.24-12.12-3.08 2.08-.72 3.84-1.44 4.8-1.8a2.555 2.555 0 01.96-.2h.64zM65.04 8.685a18.226 18.226 0 01.4 3.6c-1.52 0-3.36-.04-5.6-.16a54 54 0 007.4-7.12 43.767 43.767 0 008.36 7.04c-2.24.12-4.76.16-6.68.2a4.314 4.314 0 01.24-1.32 7.459 7.459 0 00.76-1.48.474.474 0 00-.48-.44 29.177 29.177 0 00-4.12-.64c-.24 0-.28.04-.28.16v.16zm3.2 20.761c-1.36.36-3.72.88-6.36 1.48-.04-2.76-.04-4.56-.04-6.32.8 0 2.2-.04 3.48-.04a20.509 20.509 0 002.92 4.876zm-6.4-9.72c1.4 0 4.64-.08 5.64-.08s4.04.08 5.32.08c0 .72-.04 1.44-.04 2.24-1.32 0-4.44.08-5.32.08s-4.2-.08-5.6-.08v-2.24zm10.92-2.68c-1.32 0-4.44.04-5.32.04s-4.16-.04-5.56-.04c0-1.321.04-2.2.04-2.2s4.12-.04 5.52-.04 5.32.04 5.32.04v2.2zm9.48 55.161c.72 0 2.72-3.2 2.72-3.48a.556.556 0 00-.52-.44c-7.32-2.561-16.12-9.8-18.44-11.4a7.058 7.058 0 00-3.96-1.44 4.865 4.865 0 00-3.24 1.28c-2.96 2.6-3.44 3.64-7.52 6.6a.359.359 0 00-.2.24c0 .44 3.2 2.921 3.96 2.921s.8-1.121 1.48-1.881c4.44-4.96 4.84-5.28 5.72-5.28a3.432 3.432 0 011.8.72c1.52 1 11.12 9.361 17.68 12a2.318 2.318 0 00.52.159zm-7.52-14.6a4.66 4.66 0 001.88-2.32c0-.68-5.2-3.76-5.64-3.76-.4 0-1.64 1.56-1.72 1.68a.578.578 0 00-.08.28.347.347 0 00.16.28 43.556 43.556 0 015.04 3.64.553.553 0 00.36.199zm3.88-3.52c.52 0 1.92-1.8 1.92-2.36 0-.76-5.4-3.72-5.64-3.72-.4 0-1.64 1.56-1.72 1.68a.578.578 0 00-.08.28.347.347 0 00.16.28 43.33 43.33 0 015 3.64.553.553 0 00.36.195zm-11.52 43.76c-.16 0-.2-.04-.2-.12a.424.424 0 01.16-.24c2.76-2.64 5.76-5.36 6.92-6.48.24-.24 1-.6 1-1.04 0-.6-3-2.64-3.6-2.64a.481.481 0 00-.32.08c-1.2.68-7.44 1.64-11.08 1.64-.56 0-1.08-.04-1.52-.08h-.24a.3.3 0 00-.36.36 14.95 14.95 0 001 3.24.565.565 0 00.56.4 44.656 44.656 0 008.92-1.76 1.8 1.8 0 01.32-.08.14.14 0 01.08.04c0 .72-9.44 9.24-14.72 13.2a.311.311 0 00-.12.28c0 .441 2.84 2.6 3.08 2.6a.532.532 0 00.28-.12c1.4-1.32 2.12-2.04 4.44-4.041a11.582 11.582 0 017.24-2.48c4.04 0 6.4 2.2 6.4 5 0 3.44-3.12 5.72-4.76 6.4-.28-4.08-3.52-5.68-6.6-5.68-3.8 0-5.24 2.36-5.24 4.24 0 3.04 3.32 5.4 8.08 5.4 7.44 0 12.44-5.2 12.44-10.36 0-4.161-3.28-8.041-9.24-8.041a16.2 16.2 0 00-2.8.28h-.12zm-.2 14.921h-.28c-2.48 0-4.32-1.04-4.32-2.16 0-.08 0-1.28 1.8-1.28 1.2 0 2.8.8 2.8 3.36v.08zm11.24 41.24c.48-.12.6-.24.6-2.2s-.12-2.48-.48-2.48a.881.881 0 00-.32.04 45.9 45.9 0 01-10.32 1.56c-4.28 0-7.4-1.24-8.56-4.52a.667.667 0 00-.56-.56 19.508 19.508 0 00-2.8 1.32.46.46 0 00-.24.44.435.435 0 00.04.2c1.72 5.28 6.68 7.28 13.16 7.28a48.527 48.527 0 009.48-1.082zm-18.88-23.441c-.68 0-1.16 3.12-1.16 3.48 0 .28.12.56 2.88.56 1.28 0 2.64-.08 4.32-.08a41.008 41.008 0 019.36 1.08 1.732 1.732 0 01.2.04.39.39 0 00.4-.32 22.783 22.783 0 00.36-3.32c0-.48-.04-.56-.56-.64a57.55 57.55 0 00-8.92-.76c-1.92 0-3.4.12-4.64.12a12 12 0 01-2.12-.16h-.12zm18.16 66.721c-.08-.68-.2-2.56-.2-3.36 0-.36-.08-.48-.24-.48a1.214 1.214 0 00-.44.12 30.8 30.8 0 01-9.64 1.72c-4.56 0-6.96-2.2-6.96-4.4 0-1.88 1.8-4 6.48-5.561 1.16-.4 2.56-.76 4-1.16 2.04-.56 4.68-1.28 5.76-1.64a.754.754 0 00.68-.8c0-.68-.52-3.72-1-3.72a.435.435 0 00-.2.04c-1.16.44-4.16 1.76-6.96 2.6-.68.2-1.28.4-1.84.6a11.467 11.467 0 01-.48-3.64c0-2.12.32-4.32.4-5.6.08-.88.88-1.52.88-2 0-.88-3.8-1.2-4.8-1.2-.36 0-.48.04-.48.32 0 .08.04.16.04.32a9.755 9.755 0 01.08 1.72c0 1.16-.04 2.68-.04 4.32a26.144 26.144 0 00.72 7.16c-5.08 2.32-7.2 5.561-7.2 8.561 0 3.88 3.52 7.32 8.92 7.84.88.08 1.88.12 2.96.12.2 0 9.56-.16 9.56-1.76v-.12zm-4.28 35.319a17.176 17.176 0 00-3.16-.28c-4.76 0-7.24 2.04-7.24 4.44 0 2.24 2.6 5.64 7.32 5.64 2.84 0 5.64-.96 6.84-5.08a35.085 35.085 0 015.12 3.24.532.532 0 00.28.12c.56 0 2.24-3 2.24-3.28 0-.44-3.6-2.48-7.76-3.88-.12-1.6-.4-5.56-.4-9.4v-1.2c1.36-.08 2.76-.16 4.12-.16h.88c.52 0 .6-.08.6-1 0-2.6-.12-2.84-.68-2.84-.36 0-4.28.44-4.8.48.08-1.4.12-2.76.24-4.12.04-.56.68-1.16.68-1.6 0-.88-3.24-.92-3.64-.92-.88 0-1.2.04-1.2.4v.12a21.428 21.428 0 01.24 2.8l.08 3.76-5.12.64a36.08 36.08 0 01-4.68.36c-.36 0-.52.04-.52.28a24.59 24.59 0 00.84 2.8.75.75 0 00.72.48h.12c1.4-.12 4.72-.72 8.68-1.16.04 3.12.08 6.12.2 8.76v.6zm-15.68.24a1.757 1.757 0 01-.4.76c-.04 0-.44-.48-.44-3.04a46.939 46.939 0 012.52-13.841c.28-.84 1.24-1.32 1.24-1.76 0-.72-4.28-2.04-4.76-2.04-.12 0-.16.12-.16.44a35.376 35.376 0 01-.64 4.4 70.041 70.041 0 00-1.64 13.161c0 7.44 2.68 11.6 3.16 11.6.04 0 3-.4 3-1.12a.507.507 0 00-.04-.24 5.394 5.394 0 01-.48-2.28 20.951 20.951 0 011.56-6.76 1.271 1.271 0 00.12-.36.289.289 0 00-.16-.24 4.245 4.245 0 01-1.4-1.68 1.563 1.563 0 00-.2-.16.219.219 0 00-.16.2zm15.92 3.08c-.28 1.92-1.4 3-3.64 3-1.88 0-3.24-1-3.24-1.96 0-.64.52-1.56 3.52-1.56a12.243 12.243 0 013.36.515zM19.53 14.087c3.52 0 6.72.04 11.48.32.36 0 .48-.12.48-1.96s-.16-1.96-.48-1.96c-5.24.32-7.84.36-11.44.36v-3.88c.04-2.64.12-2.52.6-3.36a4.381 4.381 0 00.64-1.16c0-.76-3.68-1.4-5.12-1.48-.24 0-.32.04-.32.24v.16a40.036 40.036 0 01.4 6c0 .32.04 1.6.04 3.48-.92 0-1.56.04-2.32.04s-1.68-.04-3.2-.08l.96-2.6a3.733 3.733 0 011.08-1.56 1.565 1.565 0 00.76-.96.888.888 0 00-.76-.6c-1.4-.48-3.52-1.28-3.8-1.28-.24 0-.36.08-.36.28 0 2.28-2.96 11.56-8 15.881a.289.289 0 00-.16.24.478.478 0 00.44.2 10.467 10.467 0 013.48 1.12.578.578 0 00.28.08c.48 0 2.6-3.041 4.68-7.521 1.28-.08 2.24-.08 3.08-.08 1.36 0 2.4.04 3.84.08 0 1.88.04 4 .04 6.161-2.12-.04-4.56-.12-8.2-.36-.52 0-.56 0-.56 1.96 0 1.88.08 1.88.56 1.88 3.6-.24 6.04-.32 8.2-.36 0 2.72-.04 5.4-.04 7.52-1.04 0-2.08.04-3.2.04-2.76 0-6-.08-10.92-.4-.44 0-.52 0-.52 2.04 0 1.64 0 1.88.52 1.88 7.52-.32 11.44-.36 15.68-.36 4.6 0 8.48.04 16.4.36.36 0 .48-.12.48-1.96 0-1.72-.12-1.96-.52-1.96-7 .28-10.32.36-14.16.36 0-2.12-.04-4.8-.04-7.52 2.32 0 4.96.08 8.52.36.44 0 .48-.12.48-1.92 0-1.48-.08-1.92-.48-1.92-3.8.24-6.16.32-8.52.36v-6.161zm9.64 44.84c-.32-.88-1.64-2.68-2-2.68a1.018 1.018 0 00-.28.08 42.362 42.362 0 01-5.36 1.96c-.44-.96-.84-1.96-1.2-2.92 4.4-1.24 4.72-1.6 4.72-1.96v-.12c-.24-.76-1.44-2.56-1.8-2.56a.507.507 0 00-.24.04c-1.2.52-2.44.96-3.68 1.36a21.6 21.6 0 01-.48-2.8c0-.56.16-1 .16-1.32 0-.4-.16-.56-1.44-.56-1.16 0-3 .16-3 .44a29.384 29.384 0 001.44 5.08 20.558 20.558 0 01-3.52.28 21.352 21.352 0 01-5.12-.64.9.9 0 00-.28-.04c-.16 0-.28.08-.28 1.56 0 1.24.12 2 .6 2.08a24.972 24.972 0 004.52.4 28.175 28.175 0 005.28-.48c.4 1 .84 1.92 1.28 2.88a37.024 37.024 0 01-6.96.72 24.408 24.408 0 01-5.12-.48 1.126 1.126 0 00-.32-.04c-.12 0-.28 0-.28.84 0 1.32.04 2.84.72 2.92a31.115 31.115 0 004.36.28 47.089 47.089 0 009.12-.96 91.058 91.058 0 001.88 3.681c-.96 0-2.24-.04-3.64-.04-4.24 0-12.2.4-12.2 5.64 0 4 4.84 7.12 11.6 7.12a18.69 18.69 0 004.32-.48 1.163 1.163 0 001.12-1c.24-.92.52-2 .8-2.76a2.029 2.029 0 00.08-.36.106.106 0 00-.12-.12 1.8 1.8 0 00-.32.08 27.8 27.8 0 01-6.44.88c-3.2 0-6.88-.84-6.88-3.04 0-2.32 4.56-2.64 7.08-2.64 1.64 0 5.56.12 7.12 1.2a1.315 1.315 0 00.64.28c.28 0 3-.92 3-1.4a.432.432 0 00-.12-.28 52.939 52.939 0 01-4.8-7.521 49.621 49.621 0 005.68-1.96.484.484 0 00.36-.52v-.12zm-12.08 43.72c-.16 0-.2-.04-.2-.12a.424.424 0 01.16-.24c2.76-2.64 5.76-5.36 6.92-6.48.24-.24 1-.6 1-1.04 0-.6-3-2.64-3.6-2.64a.481.481 0 00-.32.08c-1.2.68-7.44 1.64-11.08 1.64-.56 0-1.08-.04-1.52-.08h-.24a.3.3 0 00-.36.36 14.95 14.95 0 001 3.24.565.565 0 00.56.4 44.656 44.656 0 008.92-1.76 1.8 1.8 0 01.32-.08.14.14 0 01.08.04c0 .72-9.44 9.24-14.72 13.2a.311.311 0 00-.12.28c0 .44 2.84 2.6 3.08 2.6a.532.532 0 00.28-.12c1.4-1.32 2.12-2.04 4.44-4.04a11.583 11.583 0 017.24-2.481c4.04 0 6.4 2.2 6.4 5 0 3.44-3.12 5.72-4.76 6.4-.28-4.08-3.52-5.68-6.6-5.68-3.8 0-5.24 2.36-5.24 4.24 0 3.04 3.32 5.4 8.08 5.4 7.44 0 12.44-5.2 12.44-10.36 0-4.16-3.28-8.041-9.24-8.041a16.2 16.2 0 00-2.8.28h-.12zm-.2 14.921h-.28c-2.48 0-4.32-1.04-4.32-2.16 0-.08 0-1.28 1.8-1.28 1.2 0 2.8.8 2.8 3.36v.08zm11.24 42.04c.48-.12.6-.24.6-2.2s-.12-2.48-.48-2.48a.881.881 0 00-.32.04 45.9 45.9 0 01-10.32 1.56c-4.28 0-7.4-1.24-8.56-4.52a.667.667 0 00-.56-.56 19.508 19.508 0 00-2.8 1.32.46.46 0 00-.24.44.435.435 0 00.04.2c1.72 5.28 6.68 7.28 13.16 7.28a48.527 48.527 0 009.48-1.082zM9.25 136.167c-.68 0-1.16 3.12-1.16 3.48 0 .28.12.56 2.88.56 1.28 0 2.64-.08 4.32-.08a41.008 41.008 0 019.36 1.08 1.732 1.732 0 01.2.04.39.39 0 00.4-.32 22.783 22.783 0 00.36-3.32c0-.48-.04-.56-.56-.64a57.55 57.55 0 00-8.92-.76c-1.92 0-3.4.12-4.64.12a12 12 0 01-2.12-.16h-.12zm18.16 66.721c-.08-.68-.2-2.56-.2-3.36 0-.36-.08-.48-.24-.48a1.214 1.214 0 00-.44.12 30.8 30.8 0 01-9.64 1.72c-4.56 0-6.96-2.2-6.96-4.4 0-1.88 1.8-4 6.48-5.56 1.16-.4 2.56-.76 4-1.161 2.04-.56 4.68-1.28 5.76-1.64a.754.754 0 00.68-.8c0-.68-.52-3.72-1-3.72a.435.435 0 00-.2.04c-1.16.44-4.16 1.76-6.96 2.6-.68.2-1.28.4-1.84.6a11.467 11.467 0 01-.48-3.64c0-2.12.32-4.32.4-5.6.08-.88.88-1.52.88-2 0-.88-3.8-1.2-4.8-1.2-.36 0-.48.04-.48.32 0 .08.04.16.04.32a9.755 9.755 0 01.08 1.72c0 1.16-.04 2.68-.04 4.32a26.144 26.144 0 00.72 7.16c-5.08 2.321-7.2 5.561-7.2 8.561 0 3.88 3.52 7.32 8.92 7.84.88.08 1.88.12 2.96.12.2 0 9.56-.16 9.56-1.76v-.12zm2 23.719a5.961 5.961 0 10-5.96-5.961 5.942 5.942 0 005.96 5.96zm0-2.561a3.4 3.4 0 110-6.8 3.4 3.4 0 010 6.795z" fill="#573001" fill-rule="evenodd"/></svg>