<svg xmlns="http://www.w3.org/2000/svg" width="319.07" height="45.31"><path d="M13.56 18.45a31.948 31.948 0 005.9-2.3.81.81 0 00.4-.8c0-.1-.9-3.76-1.65-3.76a.711.711 0 00-.3.1 24.263 24.263 0 01-4.25 2.21c.05-1.2.15-2.41.3-3.56s.9-1.9.9-2.45c0-1-4-1.3-5.3-1.3h-.3c-.4 0-.5 0-.5.3a1.722 1.722 0 00.05.45c.3 1.75.55 7.21.55 7.71a27.259 27.259 0 01-5.05.55 16.181 16.181 0 01-3.2-.3H.86c-.3 0-.35.1-.35.35a16.976 16.976 0 001.05 4c.25.4.75.55 2.15.55a28.88 28.88 0 005.75-.7c.05 1.05.05 2.15.05 3.3 0 1.1 0 2.2-.05 3.3C.01 31.25.01 35.2.01 35.75c0 3.9 6.25 6.2 8.95 6.2s4.95-1.45 4.95-5.65c0-.1 0-.65-.25-7.45a21.92 21.92 0 019.15-2.1c2.85 0 7.05.8 7.05 4 0 3.15-4 6.15-6.8 6.15a3.611 3.611 0 01-3.65-3.3c-.1-.5-.15-.65-.25-.65a.761.761 0 00-.3.2 25.391 25.391 0 01-2.7 2.1.841.841 0 00-.5.75c0 1.2 1.5 5.6 7.35 5.6 6.15 0 12.2-5.8 12.2-10.85 0-6.05-6.55-8.35-12.1-8.35a24.7 24.7 0 00-9.55 2.1v-6.05zm22.55 1.25c.6 0 2.1-4 2.1-4.35s-4.55-3.26-12-3.66a.435.435 0 00-.5.35 27.435 27.435 0 00-1.2 3.56.368.368 0 00.4.4 19.318 19.318 0 0110.95 3.6.323.323 0 00.25.1zM9.46 30.75c.05 1 .05 2 .05 2.95 0 3.4-.15 4.05-1.45 4.05-.9 0-3.15-.65-3.15-2.15a2.668 2.668 0 01.8-1.7 23.978 23.978 0 013.75-3.15zm74.4 13.1c0 .4.25.55 1.8.55 2.4 0 3.25-.15 3.25-.55 0-.1-.05-.25-.05-.4-.3-3.35-.3-5.85-.3-8.4 0-1.75.05-4.15.25-6.65v-.15a.448.448 0 00-.5-.5h-.15c-2.95.15-7.15.25-9.95.25 0-1.75-.05-3.9-.05-5.75 3.4 0 6.55.05 12.55.5a.448.448 0 00.5-.35c.05-.4.05-1.15.05-1.9s0-1.5-.05-1.95a.448.448 0 00-.5-.5c-6.2.45-9.05.5-12.55.5v-.45c.1-3.1.2-2.45.8-3.45a2.374 2.374 0 00.5-1.2c0-1.16-5.2-1.56-6-1.61-.3 0-.35.05-.35.25v.26a51.6 51.6 0 01.55 7.2V28c-3.05-.05-6.8-.1-8.35-.2h-.35c-.3 0-.4.05-.4.2 0 .1.05.25.05.4.2 2.35.2 4.85.2 7.8a63.793 63.793 0 01-.4 7.8v.25c0 .55.45.65 2.5.65 2.6 0 2.6-.2 2.6-.8 0-.65-.05-1.3-.05-1.9 1.7-.05 6.15-.1 7.4-.1s5.45.05 7.05.1c0 .5 0 1-.05 1.55v.1zm9.1-36.86a.428.428 0 00-.5-.4h-.1c-7.25.45-12.45.45-15.35.45a13.789 13.789 0 01.35-2.25c.25-.8 1.05-1.65 1.05-2.2a.732.732 0 00-.65-.6 35.972 35.972 0 00-5.9-.95c-.15 0-.25.05-.25.15s.05.15.05.25a31.92 31.92 0 01.55 5.6c-4.9-.05-11.8-.2-14.9-.5h-.25c-.25 0-.4.05-.4.3a.976.976 0 00.05.35 54.849 54.849 0 01.85 10.16c0 8.15-1.45 18.35-6.75 24.05a.9.9 0 00-.25.35c0 .15.15.2.4.25a18.589 18.589 0 014.25 1.1 1.483 1.483 0 00.55.2.568.568 0 00.5-.35c4.75-7.15 6-17.3 6-26.85 0-1.75-.05-3.45-.1-5.11 2.1 0 11-.05 13.65-.05 2.75 0 8.9.05 16.55.45a.486.486 0 00.55-.5c.05-.7.05-1.85.05-2.8v-1.1zM84.01 38.3c-1.6.05-6.05.1-7.2.1-1.1 0-5.75-.05-7.4-.1v-2.25c0-1.75.05-4.25.05-4.25l7.35-.05c1.75 0 7.15.05 7.15.05s.05 2.8.05 4.15v2.35zm47.05 2.95c12.65-1.3 17.75-8.7 17.75-15.75 0-9.2-8.1-15.06-17.85-15.06-11.05 0-19.55 7.76-19.55 17.41 0 7.4 5.2 10.9 7.7 10.9a3.447 3.447 0 002.9-1.75c5.35-7.9 10.6-20.5 11.15-21.7a.829.829 0 01.8-.65h.15c6.2 1.35 9.6 5.95 9.6 10.55 0 5.8-5.4 11.65-16.9 11.9-.3 0-.55.05-.55.25a.961.961 0 00.35.5 11.819 11.819 0 012.4 2.55 1.813 1.813 0 001.7.85h.35zm-3.1-26.65c-.85 2.45-4.9 12.25-8.8 17.8a.851.851 0 01-.65.4c-1.25 0-2.5-2.9-2.5-5.2 0-5.75 5.15-11.75 11.95-13zm66 25.8c.6-.15.75-.3.75-2.75s-.15-3.1-.6-3.1a1.1 1.1 0 00-.4.05 57.38 57.38 0 01-12.9 1.95c-5.35 0-9.25-1.55-10.7-5.65a.833.833 0 00-.7-.7 24.385 24.385 0 00-3.5 1.65.574.574 0 00-.3.55.544.544 0 00.05.25c2.15 6.6 8.35 9.1 16.45 9.1a60.659 60.659 0 0011.85-1.35zm-23.6-29.31c-.85 0-1.45 3.91-1.45 4.36 0 .35.15.7 3.6.7 1.6 0 3.3-.1 5.4-.1a51.26 51.26 0 0111.7 1.35 2.166 2.166 0 01.25.05.487.487 0 00.5-.4 29.249 29.249 0 00.45-4.15c0-.61-.05-.71-.7-.81a71.937 71.937 0 00-11.15-.95c-2.4 0-4.25.15-5.8.15a15.005 15.005 0 01-2.65-.2h-.15zm27.65-.1c0-1-5.1-5.9-5.45-5.9-.1 0-2.55 1.2-2.55 1.85a.323.323 0 00.1.25 51.083 51.083 0 014.65 5.71.509.509 0 00.45.35c.5 0 2.8-1.61 2.8-2.26zm5.55-2.85c0-.55-4.75-5.9-5.4-5.9-.1 0-2.55 1.2-2.55 1.85a.323.323 0 00.1.25 51.849 51.849 0 014.65 5.7.509.509 0 00.45.35c.3 0 2.75-1.45 2.75-2.25zm45.45 14.16c4.15 0 6.05-1.1 7.35-4.45 1.6-4 1.4-11.36 1.75-13.66 0-.1.05-.2.05-.3 0-.2-.1-.25-.35-.25h-.2a88.623 88.623 0 01-10.2.55c-1.8 0-7.3-.05-11.35-.5h-.15c-.45 0-.55.35-.55 2.05 0 2.45.1 2.6.55 2.6 2.65-.2 5.1-.3 6.95-.4 0 3.15-1.85 9.71-9.4 12.86-.3-.45-2.15-3.6-2.6-3.6-.4 0-2.95 1-2.95 1.35a28.247 28.247 0 001.5 2.6c-1.35.15-3 .25-4.7.4 2.2-3.35 5.3-8.35 6.45-10.31a3.205 3.205 0 011.05-1.25 1.912 1.912 0 001-1.05c0-1.15-4.5-2.65-4.8-2.65s-.25.25-.3.5a41.143 41.143 0 01-3.45 7.76 23.053 23.053 0 00-2.3-1.8c1.25-2.16 3.05-5.46 3.8-7.06a4.414 4.414 0 01.9-1.4 2.037 2.037 0 00.95-1.15c0-1.15-4.3-2.45-4.9-2.45-.3 0-.25.25-.3.55a34.315 34.315 0 01-3.55 9.5l-1.25-.7a10.759 10.759 0 00-2.25 2.56.428.428 0 00.3.3 41.181 41.181 0 016.55 5.35c-.8 1.35-1.6 2.6-2.25 3.55-1.15.05-2.2.05-3.15.05h-1.15c-.55 0-.55.15-.55.25 0 .6 1.05 4.6 1.8 4.6.35 0 .8-.45 1.4-.6.4-.1 2.55-.45 4.95-.8-.1 7.35 0 10.15-.6 18.8 0 .5.3.65 2.5.65 2.25 0 2.7 0 2.7-.55-.55-8.2-.6-11.4-.65-17.9a1.2 1.2 0 01.35-.95.811.811 0 00.4-.55.184.184 0 00-.05-.15l2.65-.4a15.6 15.6 0 01.75 1.95.421.421 0 00.35.35c.3 0 3.25-1.6 3.25-2a15.452 15.452 0 00-1.4-3 10.083 10.083 0 013.3 1.9.275.275 0 00.25.1 1.283 1.283 0 00.6-.25 20 20 0 008.8-12.86 1.6 1.6 0 01.9-1.35.963.963 0 00.65-.7.675.675 0 00-.6-.45l-.4-.1h5.8c0 2.15-.35 6.56-1.15 8.31a2.5 2.5 0 01-2.65 1.75 14.617 14.617 0 01-3.3-.5 2.166 2.166 0 01-.25-.05.126.126 0 00-.15.1.665.665 0 00.15.35 11.055 11.055 0 012.05 3.9.724.724 0 00.8.6h.3zm2.75 21.35c0 .45.35.5 2.05.5 2.75 0 2.85-.25 2.85-.5 0-.1-.05-.25-.05-.4-.3-3.25-.35-8.15-.35-9.5 0-1.5 0-4.1.25-7.25v-.15a.38.38 0 00-.45-.45h-.15c-3.25.15-6.45.25-8.9.25-2.55 0-6.9-.05-9-.2h-.35c-.3 0-.35.05-.35.15s.05.2.05.4c.05.3.15 1.7.15 7 0 1.45 0 6.85-.35 10v.2c0 .45.15.6 2.35.6 2.3 0 2.55 0 2.55-.7 0-.45-.05-1-.05-1.55 1.25-.05 4-.05 5.15-.05 1.1 0 3.5 0 4.65.05 0 .55-.05 1.05-.05 1.5v.1zm.15-5.45c-1.15.05-3.8.05-4.8.05s-3.9 0-5.15-.05v-4.85c0-1.65.05-3.55.05-3.55s3.45-.05 5.1-.05 4.75.05 4.75.05.05 2.2.05 3.45v4.95zm-32.85 2.75c.85 0 2.3-6.9 2.7-8.95a3.125 3.125 0 01.5-1.4 3.934 3.934 0 00.65-1.05c0-.5-4.2-1.25-4.55-1.25-.2 0-.25.1-.25.6a26.714 26.714 0 01-3.35 11.35.712.712 0 00-.1.2c0 .15.2.2.5.2h.95a9.426 9.426 0 012.8.3h.15zm17.1-2.65a.379.379 0 00-.1-.2 40.373 40.373 0 01-3.75-9.75c-.05-.2-.1-.25-.25-.25 0 0-3.15.5-3.15.95a75.074 75.074 0 002.9 10.35.419.419 0 00.4.3.184.184 0 00.15-.05 15.319 15.319 0 013.4-1.05.45.45 0 00.4-.3zm58.7-31.06c6.25 8.46 17.8 15.96 18.65 15.96a.781.781 0 00.6-.3c1.1-1.4 3.45-2.7 4.45-3.35a1.063 1.063 0 00.5-.45.765.765 0 00-.5-.2c-9.6-3.35-17.3-9.96-20.9-14.81.6-.2 1.35-.55 1.35-1 0-1.05-5.1-3.1-5.4-3.1-.25 0-.25.2-.35.45-.7 3.1-9.1 15.21-21.85 20.76a.842.842 0 00-.5.3.722.722 0 00.55.35 15.4 15.4 0 014.75 3 .454.454 0 00.35.15c.85 0 10.35-7 18.3-17.76zm-16.9 38.06c10.15-3.55 12.95-10.9 13.2-17.45.05-1.55.2-6.85.75-7.6a2.81 2.81 0 00.55-1.3.524.524 0 00-.45-.55 25.02 25.02 0 00-5.35-.95c-.25 0-.35.05-.35.25v.15a27.577 27.577 0 01.4 5.45c0 1.85-.1 3.55-.1 4.05-.2 4.95-2.8 12.05-13.6 13.5a.274.274 0 00-.25.2.457.457 0 00.15.25c1.1.75 3.25 1.95 4.4 3.75a.508.508 0 00.5.25h.15zm26.15-1.25a145.217 145.217 0 01-1-18.2c0-2.55.05-5.2.5-5.8a2.424 2.424 0 00.6-1.1c0-1.05-5.85-1.5-6-1.5-.2 0-.35.05-.35.2 0 .05.05.15.05.2.4 1.55.55 3.25.55 11.25 0 3.05-.15 10.3-.55 14.9 0 .55 0 .7 3.05.7s3.15-.2 3.15-.6v-.05z" fill="#573001" fill-rule="evenodd"/></svg>