<svg xmlns="http://www.w3.org/2000/svg" width="462.85" height="45.19"><path d="M32.79 34.75c-.05-.45-.3-3.7-.3-7.4a29.369 29.369 0 01.15-3.45 40.32 40.32 0 009.9 5.45.792.792 0 00.6-.25 18.206 18.206 0 014.05-2.35.552.552 0 00.4-.5.424.424 0 00-.35-.4 34.454 34.454 0 01-14.65-6.4c3.05.05 6.6.2 11.05.4a.376.376 0 00.45-.35 12.528 12.528 0 00.1-1.5c0-1.95-.25-2-.55-2-8.55.4-13.2.45-18 .45-.05-.8-.1-1.65-.1-2.45 2.9 0 4.6.1 11.4.4a.283.283 0 00.35-.3 9.969 9.969 0 00.1-1.35c0-1.61-.1-1.81-.5-1.81-7.05.35-8.3.4-11.35.4 0-1.55.25-1.75.55-1.95a.775.775 0 00.4-.4c3.35 0 6.3.15 13.45.45a.357.357 0 00.4-.35 10.963 10.963 0 00.1-1.45c0-1.75-.1-1.85-.55-1.85-4.85.25-7.6.35-9.95.4a9.008 9.008 0 00.9-1.25 3.063 3.063 0 011.45-1.3 1.584 1.584 0 001.05-.85c0-1.1-4.85-2.8-5.1-2.8-.1 0-.15.1-.2.3a16.875 16.875 0 01-2.9 5.95h-5.3c1.25-.9 1.4-1.05 1.4-1.25 0-1.2-3.65-4.85-4.05-4.85a.26.26 0 00-.2.1c-.5.15-3.05 1.6-3.05 1.95a.705.705 0 00.3.4 19.129 19.129 0 012.75 3.6c-2.4-.05-5.25-.15-10.25-.4-.55 0-.55 0-.55 1.8 0 .55.05 1.1.05 1.45a.365.365 0 00.45.4c8.05-.35 10.65-.45 14.55-.45.05.75.05 1.55.05 2.35-3.05 0-4.35-.05-11.55-.4-.4 0-.5.05-.5 1.76 0 .5.05 1 .05 1.35.05.3.1.35.4.35 7.1-.35 8.55-.4 11.6-.4 0 .9-.05 1.75-.05 2.45-4.65 0-8.7-.05-17.35-.45-.6 0-.6 0-.6 1.9 0 .6.05 1.15.05 1.5a.477.477 0 00.55.45c4.9-.2 8.35-.35 11.3-.4l-.15.2c-2.4 2.7-8.05 6.15-14.7 8.25a.43.43 0 00-.35.3.528.528 0 00.4.4 14.906 14.906 0 013.8 2.2.275.275 0 00.25.1 37.983 37.983 0 009.8-5.55c.1 1.45.15 2.8.15 3.55v1.15c0 2.3-.05 6.7-.15 9.5a88.049 88.049 0 01-9.65 1.15c-.35 0-.65 0-.65.25 0 .1 1.7 4.25 2.65 4.25a15.656 15.656 0 001.65-.7c1.05-.3 8.35-1.5 15.3-3.1.6-.15.7-.3.7-.6a10.677 10.677 0 01.4-2.2c5.3 5.45 14.2 6.55 15.35 6.55a.954.954 0 00.8-.3 19.226 19.226 0 014.1-3.1.961.961 0 00.5-.55c0-.15-.2-.25-.6-.25a42.256 42.256 0 01-12.15-1.6c1.75-.6 3.2-1.1 4.1-1.45a3.641 3.641 0 011.45-.2c.65-.05 1.3-.2 1.3-.6 0-.6-2.8-3.55-3.3-3.55a.379.379 0 00-.2.1 19.256 19.256 0 01-7.3 3.8 12.137 12.137 0 01-2.7-2.6h2.5v.2c0 .3.1.45 2.1.45 1.55 0 2.2-.1 2.2-.45v-.3zM27.04 19.4c1.45 1.25 2.95 2.55 4.6 3.75-1.95.05-4.3.15-6.25.15a2.24 2.24 0 01.45-1.05 3.437 3.437 0 00.65-1.15c0-.35-.25-.4-5.15-1a1.134 1.134 0 01-.2-.05.082.082 0 00-.1.1v.15a12.818 12.818 0 01.55 3c-1.5 0-3.3-.05-4.75-.1a21.392 21.392 0 001.85-1.8c.85-.95 1.1-1.05 1.35-1.1a.836.836 0 00.8-.45.714.714 0 00-.4-.45h6.6zm-8.65 10.9c1.15 0 3.7-.05 4.75-.05 1.1 0 4.25.05 5.45.05 0 .5-.05 1.1-.05 1.8-1.25 0-4.45.1-5.4.1-.9 0-3.6-.05-4.75-.1v-1.8zm.05-4.25s3.2-.1 4.7-.1 5.4.1 5.4.1.05.75.05 1.6c-1.25 0-4.5.05-5.45.05-.9 0-3.55-.05-4.7-.05v-1.6zm-.05 8.8c.75 0 2.2-.05 3.35-.05a19.325 19.325 0 002.2 3c-1.15.2-3.2.65-5.55 1.05v-4zm65.5-17c4.4 0 8.4.05 14.35.4.45 0 .6-.15.6-2.45s-.2-2.45-.6-2.45c-6.55.4-9.8.45-14.3.45V8.94c.05-3.3.15-3.15.75-4.2a5.476 5.476 0 00.8-1.45c0-.95-4.6-1.75-6.4-1.85-.3 0-.4.05-.4.3v.2a50.045 50.045 0 01.5 7.5c0 .4.05 2 .05 4.36-1.15 0-1.95.05-2.9.05s-2.1-.05-4-.1l1.2-3.26a4.666 4.666 0 011.35-1.95 1.956 1.956 0 00.95-1.2 1.11 1.11 0 00-.95-.75c-1.75-.6-4.4-1.6-4.75-1.6-.3 0-.45.1-.45.35 0 2.85-3.7 14.46-10 19.86a.362.362 0 00-.2.3.6.6 0 00.55.25 13.084 13.084 0 014.35 1.4.723.723 0 00.35.1c.6 0 3.25-3.8 5.85-9.4 1.6-.1 2.8-.1 3.85-.1 1.7 0 3 .05 4.8.1 0 2.35.05 5 .05 7.7-2.65-.05-5.7-.15-10.25-.45-.65 0-.7 0-.7 2.45 0 2.35.1 2.35.7 2.35 4.5-.3 7.55-.4 10.25-.45 0 3.4-.05 6.75-.05 9.4-1.3 0-2.6.05-4 .05-3.45 0-7.5-.1-13.65-.5-.55 0-.65 0-.65 2.55 0 2.05 0 2.35.65 2.35 9.4-.4 14.3-.45 19.6-.45 5.75 0 10.6.05 20.5.45.45 0 .6-.15.6-2.45 0-2.15-.15-2.45-.65-2.45-8.75.35-12.9.45-17.7.45 0-2.65-.05-6-.05-9.4 2.9 0 6.2.1 10.65.45.55 0 .6-.15.6-2.4 0-1.85-.1-2.4-.6-2.4-4.75.3-7.7.4-10.65.45v-7.7zm60.6 22.4c.6-.15.75-.3.75-2.75s-.15-3.1-.6-3.1a1.1 1.1 0 00-.4.05 57.38 57.38 0 01-12.9 1.95c-5.35 0-9.25-1.55-10.7-5.65a.833.833 0 00-.7-.7 24.385 24.385 0 00-3.5 1.65.574.574 0 00-.3.55.544.544 0 00.05.25c2.15 6.6 8.35 9.1 16.45 9.1a60.659 60.659 0 0011.85-1.35zm-23.6-29.31c-.85 0-1.45 3.91-1.45 4.36 0 .35.15.7 3.6.7 1.6 0 3.3-.1 5.4-.1a51.26 51.26 0 0111.7 1.35 2.166 2.166 0 01.25.05.487.487 0 00.5-.4 29.249 29.249 0 00.45-4.15c0-.61-.05-.71-.7-.81a71.937 71.937 0 00-11.15-.95c-2.4 0-4.25.15-5.8.15a15.005 15.005 0 01-2.65-.2h-.15zm27.65-.1c0-1-5.1-5.9-5.45-5.9-.1 0-2.55 1.2-2.55 1.85a.323.323 0 00.1.25 51.083 51.083 0 014.65 5.71.509.509 0 00.45.35c.5 0 2.8-1.61 2.8-2.26zm5.55-2.85c0-.55-4.75-5.9-5.4-5.9-.1 0-2.55 1.2-2.55 1.85a.323.323 0 00.1.25 51.849 51.849 0 014.65 5.7.509.509 0 00.45.35c.3 0 2.75-1.45 2.75-2.25zm38.8 22.51a21.47 21.47 0 00-3.95-.35c-5.95 0-9.05 2.55-9.05 5.55 0 2.8 3.25 7.05 9.15 7.05 3.55 0 7.05-1.2 8.55-6.35a43.857 43.857 0 016.4 4.05.665.665 0 00.35.15c.7 0 2.8-3.75 2.8-4.1 0-.55-4.5-3.1-9.7-4.85-.15-2-.5-6.95-.5-11.75v-1.5c1.7-.1 3.45-.2 5.15-.2h1.1c.65 0 .75-.1.75-1.25 0-3.25-.15-3.55-.85-3.55-.45 0-5.35.55-6 .6.1-1.75.15-3.46.3-5.16.05-.7.85-1.45.85-2 0-1.1-4.05-1.15-4.55-1.15-1.1 0-1.5.05-1.5.5v.15a26.785 26.785 0 01.3 3.5l.1 4.71-6.4.8a45.1 45.1 0 01-5.85.45c-.45 0-.65.05-.65.35a30.707 30.707 0 001.05 3.5.937.937 0 00.9.6h.15c1.75-.15 5.9-.9 10.85-1.45.05 3.9.1 7.65.25 10.95v.75zm-19.6.3a2.2 2.2 0 01-.5.95c-.05 0-.55-.6-.55-3.8a58.778 58.778 0 013.15-17.31c.35-1.05 1.55-1.65 1.55-2.2 0-.9-5.35-2.55-5.95-2.55-.15 0-.2.15-.2.55a44.22 44.22 0 01-.8 5.5 87.741 87.741 0 00-2.05 16.46c0 9.3 3.35 14.5 3.95 14.5.05 0 3.75-.5 3.75-1.4a.634.634 0 00-.05-.3 6.743 6.743 0 01-.6-2.85c0-1.7.45-4.3 1.95-8.45a1.589 1.589 0 00.15-.45.362.362 0 00-.2-.3 5.307 5.307 0 01-1.75-2.1 1.954 1.954 0 00-.25-.2.274.274 0 00-.2.25zm19.9 3.85c-.35 2.4-1.75 3.75-4.55 3.75-2.35 0-4.05-1.25-4.05-2.45 0-.8.65-1.95 4.4-1.95a15.3 15.3 0 014.2.65zm41.2-10.95c2.15-4.35 5-9.15 7.35-12.96.6-.95 2.35-1.4 2.35-2.1 0-1.15-5.6-2.4-5.9-2.4-.2 0-.2.15-.45.65-5.3 11.36-12.35 23.76-16.45 34.01a.378.378 0 00-.05.2c0 .9 4.05 1.35 5.05 1.35a.557.557 0 00.65-.4 77.335 77.335 0 013.5-9.9c1.45-3.35 4.35-4.95 6.45-4.95 2.45 0 2.45 1.85 2.45 3 0 1.8-.15 3.75-.15 5.5 0 6.55 4.85 7.25 7 7.25 4.75 0 12.55-3.75 15.4-15.1a1.384 1.384 0 00.05-.45.962.962 0 00-.4-.8 10.325 10.325 0 01-2.55-2.6 1.591 1.591 0 00-.55-.6.813.813 0 00-.4.75C255.29 34.2 249.94 38 246.84 38c-2.15 0-2.75-1.5-2.75-4.15 0-1.25.05-2.6.05-3.9 0-2.1-.05-7-5.95-7a10.687 10.687 0 00-3.8.75zm59.2 17.4c12.65-1.3 17.75-8.7 17.75-15.75 0-9.2-8.1-15.06-17.85-15.06-11.05 0-19.55 7.76-19.55 17.41 0 7.4 5.2 10.9 7.7 10.9a3.447 3.447 0 002.9-1.75c5.35-7.9 10.6-20.5 11.15-21.7a.829.829 0 01.8-.65h.15c6.2 1.35 9.6 5.95 9.6 10.55 0 5.8-5.4 11.65-16.9 11.9-.3 0-.55.05-.55.25a.961.961 0 00.35.5 11.819 11.819 0 012.4 2.55 1.813 1.813 0 001.7.85h.35zm-3.1-26.65c-.85 2.45-4.9 12.25-8.8 17.8a.851.851 0 01-.65.4c-1.25 0-2.5-2.9-2.5-5.2 0-5.75 5.15-11.75 11.95-13zm62.55-3.76c0-.4-.1-.45-.95-.45-3.5 0-4.5.05-4.5.75a.544.544 0 00.05.25 25.323 25.323 0 011.5 8.51c0 8.8-4.4 18.3-11.85 18.3-3.1 0-6.25-2.1-6.25-7.55 0-6.65 4.75-16.25 10.3-18.51.45-.2 1.6-.25 1.6-1a20.089 20.089 0 00-1-2.9.868.868 0 00-.75-.55.451.451 0 00-.25.05 16.334 16.334 0 01-6.1 1.05c-2 0-3.95-.35-4.9-1.2a1.029 1.029 0 00-.45-.25c-.5 0-1.9 3.35-1.95 4.05v.1c0 .8 1.3 1.41 4.35 1.41a9.766 9.766 0 001.45-.1h.2c.1 0 .15 0 .15.05a.538.538 0 01-.2.25 28.553 28.553 0 00-6.95 17.8c0 7.7 4.75 12.15 10.65 12.15 4.05 0 14.55-2.75 15.75-18.6a.77.77 0 01.15-.55.982.982 0 01.3.5c1.05 2.55 3.75 7.75 4.95 7.75 1.3 0 4.2-2.35 4.2-2.75a1.176 1.176 0 00-.45-.65c-5.75-5.15-9.05-13.6-9.05-17.31v-.6zm39.5.5a1.3 1.3 0 01-.15.35c-.85 1.56-3.05 6.16-5.5 10.81-12.45.15-13.65 8.9-13.65 10.9a5.124 5.124 0 005.2 5.5c4.65 0 6.95-4.2 11.1-12.15a42.231 42.231 0 0110.65 3.2c-2.3 4.85-6.25 9.25-12.15 10.7a.426.426 0 00-.4.25.738.738 0 00.35.35 9.392 9.392 0 012.6 2.25.875.875 0 00.7.35c.2 0 8.3-1.5 13.15-11.85a62.033 62.033 0 017.3 4.7.711.711 0 00.3.1c.7 0 2.45-4 2.45-4.5 0-.6-5-3.3-8.35-4.85a28.224 28.224 0 00.85-3.8 1.878 1.878 0 011.1-1.6 1.876 1.876 0 001-1.2c0-1.05-5.45-2.6-6.1-2.6a.324.324 0 00-.4.3 9.634 9.634 0 01.05 1.2 22.971 22.971 0 01-.85 5.85 51.266 51.266 0 00-10.25-2.75c2.75-5.25 5.55-10.35 7.3-12.16.3-.3 1.25-.7 1.25-1.3 0-.65-3.25-3-3.95-3a.806.806 0 00-.45.15c-1.35.8-6.1 1.5-9.35 1.5a13.619 13.619 0 01-2.25-.15.976.976 0 00-.35-.05c-.3 0-.35.15-.35.45 0 .4.55 4.31 1.6 4.31a36.829 36.829 0 007.1-1.21 2.536 2.536 0 01.45-.1v.05zm-7.7 15.21c-3.5 6.5-4.7 7.9-6.2 7.9-.65 0-1.15-.5-1.15-1.6 0-2.4 1.85-5.9 7.35-6.3zm69.55 9.7c6.05-3.4 8.45-7.8 8.45-11.95 0-1.9-1.15-12.21-14.35-12.21a41.85 41.85 0 00-13.1 2.51c-3.95 1.35-8.45 3.3-10.55 3.7a.387.387 0 00-.4.35c0 .7 3.5 4.45 4.05 4.45a1.88 1.88 0 00.9-.35c10.3-5.75 16.9-6.05 18.9-6.05 7.2 0 9.05 4.65 9.05 7.4 0 4.85-5.5 10.35-21.45 11.75-.45.05-.7.1-.7.3a1.663 1.663 0 00.4.65 11.124 11.124 0 012.15 2.55 1.2 1.2 0 001.25.7c1.85 0 10.05-.8 15.4-3.8z" fill="#573001" fill-rule="evenodd"/></svg>